{"accessors":[{"bufferView":0,"byteOffset":0,"componentType":5126,"count":16,"max":[-0.0019999999999985994,0.009025207757949832,0.010532004594802856],"min":[-0.003,0.008025207757949829,0.002032004594802854],"type":"VEC3"},{"bufferView":0,"byteOffset":192,"componentType":5126,"count":5,"max":[-0.001999999999986227,0.00802520775794983,0.010532004594802858],"min":[-0.002,0.0010251972611469614,0.0020320045948028547],"type":"VEC3"},{"bufferView":0,"byteOffset":252,"componentType":5126,"count":4,"max":[-0.003,0.009025207757949832,0.010532004594802856],"min":[-0.01,0.00902520775794983,0.002032004594802854],"type":"VEC3"},{"bufferView":0,"byteOffset":300,"componentType":5126,"count":22,"max":[0.01,0.01102520775794983,0.0020320045948028565],"min":[-0.01,-0.0009747922420501708,0.0020320045948028539],"type":"VEC3"},{"bufferView":0,"byteOffset":564,"componentType":5126,"count":16,"max":[-0.001999999999997899,0.009025207757949839,0.04303200459480286],"min":[-0.003,0.00802520775794983,0.010532004594802856],"type":"VEC3"},{"bufferView":0,"byteOffset":756,"componentType":5126,"count":16,"max":[-1.8774845e-12,0.0010251972611469633,0.010532004594802858],"min":[-0.001999999999986227,-0.0009747922420501708,0.002032004594802856],"type":"VEC3"},{"bufferView":0,"byteOffset":948,"componentType":5126,"count":4,"max":[-0.001999999999995798,0.008025207757949838,0.04303200459480286],"min":[-0.0019999999999985994,0.0010252036580985062,0.010532004594802856],"type":"VEC3"},{"bufferView":0,"byteOffset":996,"componentType":5126,"count":17,"max":[4.596964e-12,0.0010252036580985134,0.04303200459480286],"min":[-0.001999999999995798,-0.0009747922420501687,0.010532004594802858],"type":"VEC3"},{"bufferView":0,"byteOffset":1200,"componentType":5126,"count":5,"max":[-0.01,0.011025207757949832,0.010532004594802856],"min":[-0.01,0.00902520775794983,0.0020320045948028539],"type":"VEC3"},{"bufferView":0,"byteOffset":1260,"componentType":5126,"count":154,"max":[-0.003,0.009025207757949849,0.04303200459480286],"min":[-0.035500000000000007,0.009025207757949832,0.010532004594802856],"type":"VEC3"},{"bufferView":0,"byteOffset":3108,"componentType":5126,"count":103,"max":[0.022499999999938605,0.05852520775793448,0.002032004594802856],"min":[-0.01,0.0010252077579498295,0.0020320045948028434],"type":"VEC3"},{"bufferView":0,"byteOffset":4344,"componentType":5126,"count":5,"max":[0.01,0.0010252077579498314,0.010532004594802858],"min":[0.009999999991648069,-0.0009747922420501708,0.002032004594802856],"type":"VEC3"},{"bufferView":0,"byteOffset":4404,"componentType":5126,"count":4,"max":[0.009999999998122518,-0.0009747922420501687,0.010532004594802858],"min":[-8.351933e-12,-0.0009747922420501708,0.0020320045948028565],"type":"VEC3"},{"bufferView":0,"byteOffset":4452,"componentType":5126,"count":20,"max":[0.009000000004596965,0.009025207757949844,0.04303200459480286],"min":[-0.003,-0.0009747922420501616,0.04303200459480286],"type":"VEC3"},{"bufferView":0,"byteOffset":4692,"componentType":5126,"count":11,"max":[0.010000000004596966,-0.0009747922420501616,0.04303200459480286],"min":[-1.8774845e-12,-0.0009747922420501687,0.010532004594802858],"type":"VEC3"},{"bufferView":0,"byteOffset":4824,"componentType":5126,"count":4,"max":[-0.01,0.03352520775794983,0.0030320045948028539],"min":[-0.01,0.01102520775794983,0.002032004594802849],"type":"VEC3"},{"bufferView":0,"byteOffset":4872,"componentType":5126,"count":4,"max":[-0.001,0.011025207757949832,0.010532004594802856],"min":[-0.01,0.01102520775794983,0.0030320045948028539],"type":"VEC3"},{"bufferView":0,"byteOffset":4920,"componentType":5126,"count":4,"max":[-0.01,0.011025207757949834,0.010532004594802856],"min":[-0.0345,0.009025207757949832,0.010532004594802854],"type":"VEC3"},{"bufferView":0,"byteOffset":4968,"componentType":5126,"count":16,"max":[-0.0345,0.011025207757949849,0.04303200459480286],"min":[-0.035500000000000007,0.009025207757949848,0.04203200459480286],"type":"VEC3"},{"bufferView":0,"byteOffset":5160,"componentType":5126,"count":4,"max":[-0.035500000000000007,0.011025207757949848,0.04203200459480286],"min":[-0.035500000000000007,0.009025207757949834,0.011532004594802855],"type":"VEC3"},{"bufferView":0,"byteOffset":5208,"componentType":5126,"count":16,"max":[-0.0345,0.011025207757949836,0.011532004594802855],"min":[-0.035500000000000007,0.009025207757949834,0.010532004594802852],"type":"VEC3"},{"bufferView":0,"byteOffset":5400,"componentType":5126,"count":5,"max":[0.0,0.011025207757949848,0.04303200459480286],"min":[-0.0345,0.009025207757949839,0.04303200459480286],"type":"VEC3"},{"bufferView":0,"byteOffset":5460,"componentType":5126,"count":54,"max":[-0.03025,0.011025207757949834,0.01577471346890091],"min":[-0.03225,0.00902520775794983,0.0137892957207048],"type":"VEC3"},{"bufferView":0,"byteOffset":6108,"componentType":5126,"count":54,"max":[-0.03025,0.011025207757949843,0.039774713468900917],"min":[-0.03225,0.009025207757949836,0.0377892957207048],"type":"VEC3"},{"bufferView":0,"byteOffset":6756,"componentType":5126,"count":64,"max":[-0.009250000000000003,0.01102520775794984,0.03676916966651339],"min":[-0.029198693233918956,0.009025207757949832,0.016794839523092333],"type":"VEC3"},{"bufferView":0,"byteOffset":7524,"componentType":5126,"count":54,"max":[-0.006250000000000005,0.011025207757949834,0.015774713468900915],"min":[-0.008250000000000004,0.00902520775794983,0.013789295720704804],"type":"VEC3"},{"bufferView":0,"byteOffset":8172,"componentType":5126,"count":54,"max":[-0.006250000000000005,0.011025207757949843,0.03977471346890092],"min":[-0.008250000000000004,0.009025207757949836,0.03778929572070481],"type":"VEC3"},{"bufferView":0,"byteOffset":8820,"componentType":5126,"count":4,"max":[0.0075,0.05102520775794983,0.003032004594802845],"min":[-0.0015,0.05102520775794983,0.002032004594802845],"type":"VEC3"},{"bufferView":0,"byteOffset":8868,"componentType":5126,"count":16,"max":[-0.0015,0.05102520775794983,0.003032004594802845],"min":[-0.0025,0.05002520775794983,0.0020320045948028447],"type":"VEC3"},{"bufferView":0,"byteOffset":9060,"componentType":5126,"count":30,"max":[0.022499999999938605,0.05852520775793448,0.003032004594802845],"min":[0.0075,0.05102517741038004,0.002032004594802843],"type":"VEC3"},{"bufferView":0,"byteOffset":9420,"componentType":5126,"count":4,"max":[-0.0025,0.05002520775794983,0.003032004594802847],"min":[-0.0025,0.04102520775794983,0.002032004594802845],"type":"VEC3"},{"bufferView":0,"byteOffset":9468,"componentType":5126,"count":4,"max":[0.022499999999938605,0.05102517741038004,0.0030320045948028469],"min":[0.022499999999938605,0.04202517741038003,0.002032004594802845],"type":"VEC3"},{"bufferView":0,"byteOffset":9516,"componentType":5126,"count":16,"max":[-0.0025,0.04102520775794983,0.003032004594802849],"min":[-0.01,0.03352520775794983,0.0020320045948028469],"type":"VEC3"},{"bufferView":0,"byteOffset":9708,"componentType":5126,"count":16,"max":[0.022499999999938605,0.04202517741038003,0.003032004594802847],"min":[0.021499999999938604,0.04102517741038003,0.0020320045948028469],"type":"VEC3"},{"bufferView":0,"byteOffset":9900,"componentType":5126,"count":4,"max":[0.021499999999938604,0.04102517741038003,0.003032004594802847],"min":[0.015,0.04102517741038003,0.002032004594802847],"type":"VEC3"},{"bufferView":0,"byteOffset":9948,"componentType":5126,"count":16,"max":[0.015,0.04102517741038003,0.0030320045948028487],"min":[0.01,0.036025177410380037,0.0020320045948028469],"type":"VEC3"},{"bufferView":0,"byteOffset":10140,"componentType":5126,"count":4,"max":[0.01,0.036025177410380037,0.003032004594802856],"min":[0.01,0.0010252077579498295,0.0020320045948028486],"type":"VEC3"},{"bufferView":0,"byteOffset":10188,"componentType":5126,"count":54,"max":[0.017,0.053010625506145939,0.0030320045948028456],"min":[0.013000000000000002,0.049039790009753728,0.002032004594802844],"type":"VEC3"},{"bufferView":0,"byteOffset":10836,"componentType":5126,"count":54,"max":[-0.0005,0.035510625506145938,0.0030320045948028495],"min":[-0.0045000000000000009,0.031539790009753727,0.002032004594802848],"type":"VEC3"},{"bufferView":0,"byteOffset":11484,"componentType":5126,"count":4,"max":[0.01,0.0010252077579498314,0.010532004594802858],"min":[0.0,0.0010252077579498297,0.003032004594802856],"type":"VEC3"},{"bufferView":0,"byteOffset":11532,"componentType":5126,"count":4,"max":[0.010000000004596966,0.0010252077579498384,0.04203200459480286],"min":[0.009999999998122518,-0.0009747922420501687,0.010532004594802858],"type":"VEC3"},{"bufferView":0,"byteOffset":11580,"componentType":5126,"count":11,"max":[0.010000000004596966,0.0010252077579498386,0.04303200459480286],"min":[0.0,0.0010252077579498314,0.010532004594802858],"type":"VEC3"},{"bufferView":0,"byteOffset":11712,"componentType":5126,"count":16,"max":[0.010000000004596966,0.0010252077579498386,0.04303200459480286],"min":[0.009000000004596965,-0.0009747922420501619,0.04203200459480286],"type":"VEC3"},{"bufferView":0,"byteOffset":11904,"componentType":5126,"count":4,"max":[0.0,0.009025207757949844,0.04303200459480286],"min":[0.0,0.0010252077579498314,0.010532004594802856],"type":"VEC3"},{"bufferView":0,"byteOffset":11952,"componentType":5126,"count":106,"max":[0.022499999999938605,0.05852520775793448,0.003032004594802856],"min":[-0.01,0.0010252077579498297,0.0030320045948028435],"type":"VEC3"},{"bufferView":0,"byteOffset":13224,"componentType":5126,"count":4,"max":[-0.001,0.02602520775794983,0.013032004594802855],"min":[-0.001,0.01102520775794983,0.0030320045948028508],"type":"VEC3"},{"bufferView":0,"byteOffset":13272,"componentType":5126,"count":156,"max":[0.0,0.011025207757949849,0.04303200459480286],"min":[-0.035500000000000007,0.011025207757949832,0.010532004594802854],"type":"VEC3"},{"bufferView":0,"byteOffset":15144,"componentType":5126,"count":5,"max":[0.0,0.011025207757949848,0.04303200459480286],"min":[0.0,0.009025207757949834,0.010532004594802854],"type":"VEC3"},{"bufferView":0,"byteOffset":15204,"componentType":5126,"count":5,"max":[0.0,0.011025207757949836,0.010532004594802858],"min":[0.0,0.0010252077579498297,0.0030320045948028539],"type":"VEC3"},{"bufferView":0,"byteOffset":15264,"componentType":5126,"count":4,"max":[0.0,0.02602520775794983,0.013032004594802855],"min":[0.0,0.01102520775794983,0.0030320045948028508],"type":"VEC3"},{"bufferView":0,"byteOffset":15312,"componentType":5126,"count":4,"max":[0.0,0.02602520775794983,0.013032004594802855],"min":[-0.001,0.011025207757949832,0.0030320045948028508],"type":"VEC3"},{"bufferView":1,"byteOffset":0,"componentType":5126,"count":16,"type":"VEC3"},{"bufferView":1,"byteOffset":192,"componentType":5126,"count":5,"type":"VEC3"},{"bufferView":1,"byteOffset":252,"componentType":5126,"count":4,"type":"VEC3"},{"bufferView":1,"byteOffset":300,"componentType":5126,"count":22,"type":"VEC3"},{"bufferView":1,"byteOffset":564,"componentType":5126,"count":16,"type":"VEC3"},{"bufferView":1,"byteOffset":756,"componentType":5126,"count":16,"type":"VEC3"},{"bufferView":1,"byteOffset":948,"componentType":5126,"count":4,"type":"VEC3"},{"bufferView":1,"byteOffset":996,"componentType":5126,"count":17,"type":"VEC3"},{"bufferView":1,"byteOffset":1200,"componentType":5126,"count":5,"type":"VEC3"},{"bufferView":1,"byteOffset":1260,"componentType":5126,"count":154,"type":"VEC3"},{"bufferView":1,"byteOffset":3108,"componentType":5126,"count":103,"type":"VEC3"},{"bufferView":1,"byteOffset":4344,"componentType":5126,"count":5,"type":"VEC3"},{"bufferView":1,"byteOffset":4404,"componentType":5126,"count":4,"type":"VEC3"},{"bufferView":1,"byteOffset":4452,"componentType":5126,"count":20,"type":"VEC3"},{"bufferView":1,"byteOffset":4692,"componentType":5126,"count":11,"type":"VEC3"},{"bufferView":1,"byteOffset":4824,"componentType":5126,"count":4,"type":"VEC3"},{"bufferView":1,"byteOffset":4872,"componentType":5126,"count":4,"type":"VEC3"},{"bufferView":1,"byteOffset":4920,"componentType":5126,"count":4,"type":"VEC3"},{"bufferView":1,"byteOffset":4968,"componentType":5126,"count":16,"type":"VEC3"},{"bufferView":1,"byteOffset":5160,"componentType":5126,"count":4,"type":"VEC3"},{"bufferView":1,"byteOffset":5208,"componentType":5126,"count":16,"type":"VEC3"},{"bufferView":1,"byteOffset":5400,"componentType":5126,"count":5,"type":"VEC3"},{"bufferView":1,"byteOffset":5460,"componentType":5126,"count":54,"type":"VEC3"},{"bufferView":1,"byteOffset":6108,"componentType":5126,"count":54,"type":"VEC3"},{"bufferView":1,"byteOffset":6756,"componentType":5126,"count":64,"type":"VEC3"},{"bufferView":1,"byteOffset":7524,"componentType":5126,"count":54,"type":"VEC3"},{"bufferView":1,"byteOffset":8172,"componentType":5126,"count":54,"type":"VEC3"},{"bufferView":1,"byteOffset":8820,"componentType":5126,"count":4,"type":"VEC3"},{"bufferView":1,"byteOffset":8868,"componentType":5126,"count":16,"type":"VEC3"},{"bufferView":1,"byteOffset":9060,"componentType":5126,"count":30,"type":"VEC3"},{"bufferView":1,"byteOffset":9420,"componentType":5126,"count":4,"type":"VEC3"},{"bufferView":1,"byteOffset":9468,"componentType":5126,"count":4,"type":"VEC3"},{"bufferView":1,"byteOffset":9516,"componentType":5126,"count":16,"type":"VEC3"},{"bufferView":1,"byteOffset":9708,"componentType":5126,"count":16,"type":"VEC3"},{"bufferView":1,"byteOffset":9900,"componentType":5126,"count":4,"type":"VEC3"},{"bufferView":1,"byteOffset":9948,"componentType":5126,"count":16,"type":"VEC3"},{"bufferView":1,"byteOffset":10140,"componentType":5126,"count":4,"type":"VEC3"},{"bufferView":1,"byteOffset":10188,"componentType":5126,"count":54,"type":"VEC3"},{"bufferView":1,"byteOffset":10836,"componentType":5126,"count":54,"type":"VEC3"},{"bufferView":1,"byteOffset":11484,"componentType":5126,"count":4,"type":"VEC3"},{"bufferView":1,"byteOffset":11532,"componentType":5126,"count":4,"type":"VEC3"},{"bufferView":1,"byteOffset":11580,"componentType":5126,"count":11,"type":"VEC3"},{"bufferView":1,"byteOffset":11712,"componentType":5126,"count":16,"type":"VEC3"},{"bufferView":1,"byteOffset":11904,"componentType":5126,"count":4,"type":"VEC3"},{"bufferView":1,"byteOffset":11952,"componentType":5126,"count":106,"type":"VEC3"},{"bufferView":1,"byteOffset":13224,"componentType":5126,"count":4,"type":"VEC3"},{"bufferView":1,"byteOffset":13272,"componentType":5126,"count":156,"type":"VEC3"},{"bufferView":1,"byteOffset":15144,"componentType":5126,"count":5,"type":"VEC3"},{"bufferView":1,"byteOffset":15204,"componentType":5126,"count":5,"type":"VEC3"},{"bufferView":1,"byteOffset":15264,"componentType":5126,"count":4,"type":"VEC3"},{"bufferView":1,"byteOffset":15312,"componentType":5126,"count":4,"type":"VEC3"},{"bufferView":2,"byteOffset":0,"componentType":5123,"count":42,"type":"SCALAR"},{"bufferView":2,"byteOffset":84,"componentType":5123,"count":9,"type":"SCALAR"},{"bufferView":2,"byteOffset":104,"componentType":5123,"count":6,"type":"SCALAR"},{"bufferView":2,"byteOffset":116,"componentType":5123,"count":60,"type":"SCALAR"},{"bufferView":2,"byteOffset":236,"componentType":5123,"count":42,"type":"SCALAR"},{"bufferView":2,"byteOffset":320,"componentType":5123,"count":42,"type":"SCALAR"},{"bufferView":2,"byteOffset":404,"componentType":5123,"count":6,"type":"SCALAR"},{"bufferView":2,"byteOffset":416,"componentType":5123,"count":45,"type":"SCALAR"},{"bufferView":2,"byteOffset":508,"componentType":5123,"count":9,"type":"SCALAR"},{"bufferView":2,"byteOffset":528,"componentType":5123,"count":486,"type":"SCALAR"},{"bufferView":2,"byteOffset":1500,"componentType":5123,"count":315,"type":"SCALAR"},{"bufferView":2,"byteOffset":2132,"componentType":5123,"count":9,"type":"SCALAR"},{"bufferView":2,"byteOffset":2152,"componentType":5123,"count":6,"type":"SCALAR"},{"bufferView":2,"byteOffset":2164,"componentType":5123,"count":54,"type":"SCALAR"},{"bufferView":2,"byteOffset":2272,"componentType":5123,"count":27,"type":"SCALAR"},{"bufferView":2,"byteOffset":2328,"componentType":5123,"count":6,"type":"SCALAR"},{"bufferView":2,"byteOffset":2340,"componentType":5123,"count":6,"type":"SCALAR"},{"bufferView":2,"byteOffset":2352,"componentType":5123,"count":6,"type":"SCALAR"},{"bufferView":2,"byteOffset":2364,"componentType":5123,"count":42,"type":"SCALAR"},{"bufferView":2,"byteOffset":2448,"componentType":5123,"count":6,"type":"SCALAR"},{"bufferView":2,"byteOffset":2460,"componentType":5123,"count":42,"type":"SCALAR"},{"bufferView":2,"byteOffset":2544,"componentType":5123,"count":9,"type":"SCALAR"},{"bufferView":2,"byteOffset":2564,"componentType":5123,"count":156,"type":"SCALAR"},{"bufferView":2,"byteOffset":2876,"componentType":5123,"count":156,"type":"SCALAR"},{"bufferView":2,"byteOffset":3188,"componentType":5123,"count":186,"type":"SCALAR"},{"bufferView":2,"byteOffset":3560,"componentType":5123,"count":156,"type":"SCALAR"},{"bufferView":2,"byteOffset":3872,"componentType":5123,"count":156,"type":"SCALAR"},{"bufferView":2,"byteOffset":4184,"componentType":5123,"count":6,"type":"SCALAR"},{"bufferView":2,"byteOffset":4196,"componentType":5123,"count":42,"type":"SCALAR"},{"bufferView":2,"byteOffset":4280,"componentType":5123,"count":84,"type":"SCALAR"},{"bufferView":2,"byteOffset":4448,"componentType":5123,"count":6,"type":"SCALAR"},{"bufferView":2,"byteOffset":4460,"componentType":5123,"count":6,"type":"SCALAR"},{"bufferView":2,"byteOffset":4472,"componentType":5123,"count":42,"type":"SCALAR"},{"bufferView":2,"byteOffset":4556,"componentType":5123,"count":42,"type":"SCALAR"},{"bufferView":2,"byteOffset":4640,"componentType":5123,"count":6,"type":"SCALAR"},{"bufferView":2,"byteOffset":4652,"componentType":5123,"count":42,"type":"SCALAR"},{"bufferView":2,"byteOffset":4736,"componentType":5123,"count":6,"type":"SCALAR"},{"bufferView":2,"byteOffset":4748,"componentType":5123,"count":156,"type":"SCALAR"},{"bufferView":2,"byteOffset":5060,"componentType":5123,"count":156,"type":"SCALAR"},{"bufferView":2,"byteOffset":5372,"componentType":5123,"count":6,"type":"SCALAR"},{"bufferView":2,"byteOffset":5384,"componentType":5123,"count":6,"type":"SCALAR"},{"bufferView":2,"byteOffset":5396,"componentType":5123,"count":27,"type":"SCALAR"},{"bufferView":2,"byteOffset":5452,"componentType":5123,"count":42,"type":"SCALAR"},{"bufferView":2,"byteOffset":5536,"componentType":5123,"count":6,"type":"SCALAR"},{"bufferView":2,"byteOffset":5548,"componentType":5123,"count":324,"type":"SCALAR"},{"bufferView":2,"byteOffset":6196,"componentType":5123,"count":6,"type":"SCALAR"},{"bufferView":2,"byteOffset":6208,"componentType":5123,"count":492,"type":"SCALAR"},{"bufferView":2,"byteOffset":7192,"componentType":5123,"count":9,"type":"SCALAR"},{"bufferView":2,"byteOffset":7212,"componentType":5123,"count":9,"type":"SCALAR"},{"bufferView":2,"byteOffset":7232,"componentType":5123,"count":6,"type":"SCALAR"},{"bufferView":2,"byteOffset":7244,"componentType":5123,"count":6,"type":"SCALAR"}],"asset":{"generator":"Open CASCADE Technology 7.6 [dev.opencascade.org]","version":"2.0"},"bufferViews":[{"buffer":0,"byteLength":15360,"byteOffset":0,"byteStride":12,"target":34962},{"buffer":0,"byteLength":15360,"byteOffset":15360,"byteStride":12,"target":34962},{"buffer":0,"byteLength":7256,"byteOffset":30720,"target":34963}],"buffers":[{"byteLength":37976,"uri":"laser-support.bin"}],"materials":[{"name":"mat_0","pbrMetallicRoughness":{"baseColorFactor":[0.7293471097946167,0.7293471097946167,0.7293471097946167,1.0]},"doubleSided":true}],"meshes":[{"name":"laser-support","primitives":[{"attributes":{"NORMAL":51,"POSITION":0},"indices":102,"material":0,"mode":4},{"attributes":{"NORMAL":52,"POSITION":1},"indices":103,"material":0,"mode":4},{"attributes":{"NORMAL":53,"POSITION":2},"indices":104,"material":0,"mode":4},{"attributes":{"NORMAL":54,"POSITION":3},"indices":105,"material":0,"mode":4},{"attributes":{"NORMAL":55,"POSITION":4},"indices":106,"material":0,"mode":4},{"attributes":{"NORMAL":56,"POSITION":5},"indices":107,"material":0,"mode":4},{"attributes":{"NORMAL":57,"POSITION":6},"indices":108,"material":0,"mode":4},{"attributes":{"NORMAL":58,"POSITION":7},"indices":109,"material":0,"mode":4},{"attributes":{"NORMAL":59,"POSITION":8},"indices":110,"material":0,"mode":4},{"attributes":{"NORMAL":60,"POSITION":9},"indices":111,"material":0,"mode":4},{"attributes":{"NORMAL":61,"POSITION":10},"indices":112,"material":0,"mode":4},{"attributes":{"NORMAL":62,"POSITION":11},"indices":113,"material":0,"mode":4},{"attributes":{"NORMAL":63,"POSITION":12},"indices":114,"material":0,"mode":4},{"attributes":{"NORMAL":64,"POSITION":13},"indices":115,"material":0,"mode":4},{"attributes":{"NORMAL":65,"POSITION":14},"indices":116,"material":0,"mode":4},{"attributes":{"NORMAL":66,"POSITION":15},"indices":117,"material":0,"mode":4},{"attributes":{"NORMAL":67,"POSITION":16},"indices":118,"material":0,"mode":4},{"attributes":{"NORMAL":68,"POSITION":17},"indices":119,"material":0,"mode":4},{"attributes":{"NORMAL":69,"POSITION":18},"indices":120,"material":0,"mode":4},{"attributes":{"NORMAL":70,"POSITION":19},"indices":121,"material":0,"mode":4},{"attributes":{"NORMAL":71,"POSITION":20},"indices":122,"material":0,"mode":4},{"attributes":{"NORMAL":72,"POSITION":21},"indices":123,"material":0,"mode":4},{"attributes":{"NORMAL":73,"POSITION":22},"indices":124,"material":0,"mode":4},{"attributes":{"NORMAL":74,"POSITION":23},"indices":125,"material":0,"mode":4},{"attributes":{"NORMAL":75,"POSITION":24},"indices":126,"material":0,"mode":4},{"attributes":{"NORMAL":76,"POSITION":25},"indices":127,"material":0,"mode":4},{"attributes":{"NORMAL":77,"POSITION":26},"indices":128,"material":0,"mode":4},{"attributes":{"NORMAL":78,"POSITION":27},"indices":129,"material":0,"mode":4},{"attributes":{"NORMAL":79,"POSITION":28},"indices":130,"material":0,"mode":4},{"attributes":{"NORMAL":80,"POSITION":29},"indices":131,"material":0,"mode":4},{"attributes":{"NORMAL":81,"POSITION":30},"indices":132,"material":0,"mode":4},{"attributes":{"NORMAL":82,"POSITION":31},"indices":133,"material":0,"mode":4},{"attributes":{"NORMAL":83,"POSITION":32},"indices":134,"material":0,"mode":4},{"attributes":{"NORMAL":84,"POSITION":33},"indices":135,"material":0,"mode":4},{"attributes":{"NORMAL":85,"POSITION":34},"indices":136,"material":0,"mode":4},{"attributes":{"NORMAL":86,"POSITION":35},"indices":137,"material":0,"mode":4},{"attributes":{"NORMAL":87,"POSITION":36},"indices":138,"material":0,"mode":4},{"attributes":{"NORMAL":88,"POSITION":37},"indices":139,"material":0,"mode":4},{"attributes":{"NORMAL":89,"POSITION":38},"indices":140,"material":0,"mode":4},{"attributes":{"NORMAL":90,"POSITION":39},"indices":141,"material":0,"mode":4},{"attributes":{"NORMAL":91,"POSITION":40},"indices":142,"material":0,"mode":4},{"attributes":{"NORMAL":92,"POSITION":41},"indices":143,"material":0,"mode":4},{"attributes":{"NORMAL":93,"POSITION":42},"indices":144,"material":0,"mode":4},{"attributes":{"NORMAL":94,"POSITION":43},"indices":145,"material":0,"mode":4},{"attributes":{"NORMAL":95,"POSITION":44},"indices":146,"material":0,"mode":4},{"attributes":{"NORMAL":96,"POSITION":45},"indices":147,"material":0,"mode":4},{"attributes":{"NORMAL":97,"POSITION":46},"indices":148,"material":0,"mode":4},{"attributes":{"NORMAL":98,"POSITION":47},"indices":149,"material":0,"mode":4},{"attributes":{"NORMAL":99,"POSITION":48},"indices":150,"material":0,"mode":4},{"attributes":{"NORMAL":100,"POSITION":49},"indices":151,"material":0,"mode":4},{"attributes":{"NORMAL":101,"POSITION":50},"indices":152,"material":0,"mode":4}]}],"nodes":[{"mesh":0,"name":"laser-support"}],"scene":0,"scenes":[{"nodes":[0]}]}