{"accessors":[{"bufferView":0,"byteOffset":0,"componentType":5126,"count":438,"max":[0.01274728633781278,0.006000000000000005,0.012747286337812778],"min":[-0.01274728633781278,0.0010000000000325836,-0.012747286337812782],"type":"VEC3"},{"bufferView":0,"byteOffset":5256,"componentType":5126,"count":28,"max":[0.00951138721240233,0.006000000000000005,0.009511387212402328],"min":[-0.009511387212402332,0.005999999999999993,-0.009511387212402335],"type":"VEC3"},{"bufferView":0,"byteOffset":5592,"componentType":5126,"count":34,"max":[0.014249999999999997,0.009000000000000008,0.014189212012204236],"min":[-0.014249999999999999,0.008999999999999989,-0.014189212012204246],"type":"VEC3"},{"bufferView":0,"byteOffset":6000,"componentType":5126,"count":385,"max":[0.015249999999999997,0.009000000000000008,0.015234644264755043],"min":[-0.015224927912181823,0.00799999999999999,-0.015234644264755052],"type":"VEC3"},{"bufferView":0,"byteOffset":10620,"componentType":5126,"count":72,"max":[0.015249999999999997,0.008000000000000009,0.015234644264755048],"min":[-0.015188607983427395,0.0009999999999999895,-0.015234644264755052],"type":"VEC3"},{"bufferView":0,"byteOffset":11484,"componentType":5126,"count":382,"max":[0.015249999999999997,0.0010000000000000098,0.015234644264755048],"min":[-0.01522492791218182,1.6286233227951825e-14,-0.015234644264755047],"type":"VEC3"},{"bufferView":0,"byteOffset":16068,"componentType":5126,"count":67,"max":[0.014249999999999997,3.26006874448036e-14,0.01418921201220424],"min":[-0.014249999999999999,1.6286233227951825e-14,-0.01418921201220424],"type":"VEC3"},{"bufferView":0,"byteOffset":16872,"componentType":5126,"count":355,"max":[0.013249999999999997,0.0010000000000326,0.013234992244174854],"min":[-0.013190002974093372,3.25829525551964e-14,-0.013234992244174854],"type":"VEC3"},{"bufferView":0,"byteOffset":21132,"componentType":5126,"count":4,"max":[0.018314659966250526,0.0015,0.007499999999999999],"min":[0.013564659966250536,0.0005,0.0047575862213495149],"type":"VEC3"},{"bufferView":0,"byteOffset":21180,"componentType":5126,"count":22,"max":[0.013564659966250536,0.002,0.0075],"min":[0.012564659966250537,0.0,0.007499999999999962],"type":"VEC3"},{"bufferView":0,"byteOffset":21444,"componentType":5126,"count":19,"max":[0.018314659966250526,0.0005,0.0075],"min":[0.012564659966250537,0.0,0.004324573519457287],"type":"VEC3"},{"bufferView":0,"byteOffset":21672,"componentType":5126,"count":19,"max":[0.018314659966250526,0.002,0.0075],"min":[0.012564659966250537,0.0015,0.004324573519457287],"type":"VEC3"},{"bufferView":0,"byteOffset":21900,"componentType":5126,"count":12,"max":[0.01856465996625054,0.0015,0.0047575862213495149],"min":[0.018314659966250526,0.0005,0.004324573519457287],"type":"VEC3"},{"bufferView":0,"byteOffset":22044,"componentType":5126,"count":4,"max":[0.012564659966250537,0.002,0.007499999999999962],"min":[0.012564659966250522,0.0,-0.007499999999999974],"type":"VEC3"},{"bufferView":0,"byteOffset":22092,"componentType":5126,"count":4,"max":[0.018064659966250539,0.0,0.007499999999999962],"min":[0.012564659966250522,0.0,-0.007499999999999974],"type":"VEC3"},{"bufferView":0,"byteOffset":22140,"componentType":5126,"count":34,"max":[0.01856465996625054,0.0005,0.0047575862213495149],"min":[0.018064659966250539,0.0,0.004324573519457287],"type":"VEC3"},{"bufferView":0,"byteOffset":22548,"componentType":5126,"count":4,"max":[0.018064659966250539,0.002,0.007499999999999962],"min":[0.012564659966250522,0.002,-0.007499999999999974],"type":"VEC3"},{"bufferView":0,"byteOffset":22596,"componentType":5126,"count":34,"max":[0.01856465996625054,0.002,0.0047575862213495149],"min":[0.018064659966250539,0.0015,0.004324573519457287],"type":"VEC3"},{"bufferView":0,"byteOffset":23004,"componentType":5126,"count":4,"max":[0.01856465996625054,0.0015,0.004324573519457287],"min":[0.01856465996625054,0.0005,-0.004324573519457291],"type":"VEC3"},{"bufferView":0,"byteOffset":23052,"componentType":5126,"count":22,"max":[0.013564659966250535,0.002,-0.007499999999999974],"min":[0.012564659966250522,0.0,-0.007500000000000002],"type":"VEC3"},{"bufferView":0,"byteOffset":23316,"componentType":5126,"count":16,"max":[0.01856465996625054,0.0005,0.004324573519457287],"min":[0.018064659966250539,0.0,-0.004324573519457291],"type":"VEC3"},{"bufferView":0,"byteOffset":23508,"componentType":5126,"count":19,"max":[0.018314659966250526,0.0005,-0.004324573519457289],"min":[0.012564659966250522,0.0,-0.007500000000000002],"type":"VEC3"},{"bufferView":0,"byteOffset":23736,"componentType":5126,"count":16,"max":[0.01856465996625054,0.002,0.004324573519457287],"min":[0.018064659966250539,0.0015,-0.004324573519457291],"type":"VEC3"},{"bufferView":0,"byteOffset":23928,"componentType":5126,"count":19,"max":[0.018314659966250526,0.002,-0.004324573519457289],"min":[0.012564659966250522,0.0015,-0.007500000000000002],"type":"VEC3"},{"bufferView":0,"byteOffset":24156,"componentType":5126,"count":12,"max":[0.01856465996625054,0.0015,-0.004324573519457291],"min":[0.018314659966250526,0.0005,-0.004757586221349519],"type":"VEC3"},{"bufferView":0,"byteOffset":24300,"componentType":5126,"count":4,"max":[0.018314659966250526,0.0015,-0.004757586221349519],"min":[0.013564659966250535,0.0005,-0.007500000000000002],"type":"VEC3"},{"bufferView":0,"byteOffset":24348,"componentType":5126,"count":34,"max":[0.01856465996625054,0.0005,-0.004324573519457289],"min":[0.018064659966250539,0.0,-0.004757586221349519],"type":"VEC3"},{"bufferView":0,"byteOffset":24756,"componentType":5126,"count":34,"max":[0.01856465996625054,0.002,-0.004324573519457289],"min":[0.018064659966250539,0.0015,-0.004757586221349519],"type":"VEC3"},{"bufferView":0,"byteOffset":25164,"componentType":5126,"count":4,"max":[0.0,0.002,0.0],"min":[0.0,0.0,-0.002],"type":"VEC3"},{"bufferView":0,"byteOffset":25212,"componentType":5126,"count":4,"max":[0.03,0.002,0.0],"min":[0.03,0.0,-0.002],"type":"VEC3"},{"bufferView":0,"byteOffset":25260,"componentType":5126,"count":4,"max":[0.03,0.002,0.0],"min":[0.0,0.0,0.0],"type":"VEC3"},{"bufferView":0,"byteOffset":25308,"componentType":5126,"count":4,"max":[0.03,0.002,-0.002],"min":[0.0,0.0,-0.002],"type":"VEC3"},{"bufferView":0,"byteOffset":25356,"componentType":5126,"count":4,"max":[0.03,0.0,0.0],"min":[0.0,0.0,-0.002],"type":"VEC3"},{"bufferView":0,"byteOffset":25404,"componentType":5126,"count":4,"max":[0.03,0.002,0.0],"min":[0.0,0.002,-0.002],"type":"VEC3"},{"bufferView":0,"byteOffset":25452,"componentType":5126,"count":4,"max":[0.0,0.002,0.0],"min":[0.0,0.0,-0.002],"type":"VEC3"},{"bufferView":0,"byteOffset":25500,"componentType":5126,"count":4,"max":[0.03,0.002,0.0],"min":[0.03,0.0,-0.002],"type":"VEC3"},{"bufferView":0,"byteOffset":25548,"componentType":5126,"count":4,"max":[0.03,0.002,0.0],"min":[0.0,0.0,0.0],"type":"VEC3"},{"bufferView":0,"byteOffset":25596,"componentType":5126,"count":4,"max":[0.03,0.002,-0.002],"min":[0.0,0.0,-0.002],"type":"VEC3"},{"bufferView":0,"byteOffset":25644,"componentType":5126,"count":4,"max":[0.03,0.0,0.0],"min":[0.0,0.0,-0.002],"type":"VEC3"},{"bufferView":0,"byteOffset":25692,"componentType":5126,"count":4,"max":[0.03,0.002,0.0],"min":[0.0,0.002,-0.002],"type":"VEC3"},{"bufferView":0,"byteOffset":25740,"componentType":5126,"count":67,"max":[0.0145,9.704633850205049e-18,0.014484528134634399],"min":[-0.014465196042423884,-9.712408116804554e-18,-0.014496131517618742],"type":"VEC3"},{"bufferView":0,"byteOffset":26544,"componentType":5126,"count":70,"max":[0.0145,0.0020000000000000097,0.014484528134634399],"min":[-0.014465196042423884,-9.712408116804554e-18,-0.014496131517618744],"type":"VEC3"},{"bufferView":0,"byteOffset":27384,"componentType":5126,"count":67,"max":[0.0145,0.0020000000000000097,0.014484528134634393],"min":[-0.014465196042423884,0.00199999999999999,-0.014496131517618744],"type":"VEC3"},{"bufferView":0,"byteOffset":28188,"componentType":5126,"count":64,"max":[0.012499999999999994,0.002000000000000008,0.012495988441205378],"min":[-0.012483956339638156,-8.350820650124047e-18,-0.012463911418095593],"type":"VEC3"},{"bufferView":0,"byteOffset":28956,"componentType":5126,"count":4,"max":[0.0145,0.002,3.552713678800501e-18],"min":[0.012499999999999994,0.0,-3.552713678800501e-18],"type":"VEC3"},{"bufferView":0,"byteOffset":29004,"componentType":5126,"count":4,"max":[0.010253048327204934,0.001999999999999987,-0.008838834764831844],"min":[0.00883883476483184,-1.3322676295501878e-17,-0.010253048327204941],"type":"VEC3"},{"bufferView":1,"byteOffset":0,"componentType":5126,"count":438,"type":"VEC3"},{"bufferView":1,"byteOffset":5256,"componentType":5126,"count":28,"type":"VEC3"},{"bufferView":1,"byteOffset":5592,"componentType":5126,"count":34,"type":"VEC3"},{"bufferView":1,"byteOffset":6000,"componentType":5126,"count":385,"type":"VEC3"},{"bufferView":1,"byteOffset":10620,"componentType":5126,"count":72,"type":"VEC3"},{"bufferView":1,"byteOffset":11484,"componentType":5126,"count":382,"type":"VEC3"},{"bufferView":1,"byteOffset":16068,"componentType":5126,"count":67,"type":"VEC3"},{"bufferView":1,"byteOffset":16872,"componentType":5126,"count":355,"type":"VEC3"},{"bufferView":1,"byteOffset":21132,"componentType":5126,"count":4,"type":"VEC3"},{"bufferView":1,"byteOffset":21180,"componentType":5126,"count":22,"type":"VEC3"},{"bufferView":1,"byteOffset":21444,"componentType":5126,"count":19,"type":"VEC3"},{"bufferView":1,"byteOffset":21672,"componentType":5126,"count":19,"type":"VEC3"},{"bufferView":1,"byteOffset":21900,"componentType":5126,"count":12,"type":"VEC3"},{"bufferView":1,"byteOffset":22044,"componentType":5126,"count":4,"type":"VEC3"},{"bufferView":1,"byteOffset":22092,"componentType":5126,"count":4,"type":"VEC3"},{"bufferView":1,"byteOffset":22140,"componentType":5126,"count":34,"type":"VEC3"},{"bufferView":1,"byteOffset":22548,"componentType":5126,"count":4,"type":"VEC3"},{"bufferView":1,"byteOffset":22596,"componentType":5126,"count":34,"type":"VEC3"},{"bufferView":1,"byteOffset":23004,"componentType":5126,"count":4,"type":"VEC3"},{"bufferView":1,"byteOffset":23052,"componentType":5126,"count":22,"type":"VEC3"},{"bufferView":1,"byteOffset":23316,"componentType":5126,"count":16,"type":"VEC3"},{"bufferView":1,"byteOffset":23508,"componentType":5126,"count":19,"type":"VEC3"},{"bufferView":1,"byteOffset":23736,"componentType":5126,"count":16,"type":"VEC3"},{"bufferView":1,"byteOffset":23928,"componentType":5126,"count":19,"type":"VEC3"},{"bufferView":1,"byteOffset":24156,"componentType":5126,"count":12,"type":"VEC3"},{"bufferView":1,"byteOffset":24300,"componentType":5126,"count":4,"type":"VEC3"},{"bufferView":1,"byteOffset":24348,"componentType":5126,"count":34,"type":"VEC3"},{"bufferView":1,"byteOffset":24756,"componentType":5126,"count":34,"type":"VEC3"},{"bufferView":1,"byteOffset":25164,"componentType":5126,"count":4,"type":"VEC3"},{"bufferView":1,"byteOffset":25212,"componentType":5126,"count":4,"type":"VEC3"},{"bufferView":1,"byteOffset":25260,"componentType":5126,"count":4,"type":"VEC3"},{"bufferView":1,"byteOffset":25308,"componentType":5126,"count":4,"type":"VEC3"},{"bufferView":1,"byteOffset":25356,"componentType":5126,"count":4,"type":"VEC3"},{"bufferView":1,"byteOffset":25404,"componentType":5126,"count":4,"type":"VEC3"},{"bufferView":1,"byteOffset":25452,"componentType":5126,"count":4,"type":"VEC3"},{"bufferView":1,"byteOffset":25500,"componentType":5126,"count":4,"type":"VEC3"},{"bufferView":1,"byteOffset":25548,"componentType":5126,"count":4,"type":"VEC3"},{"bufferView":1,"byteOffset":25596,"componentType":5126,"count":4,"type":"VEC3"},{"bufferView":1,"byteOffset":25644,"componentType":5126,"count":4,"type":"VEC3"},{"bufferView":1,"byteOffset":25692,"componentType":5126,"count":4,"type":"VEC3"},{"bufferView":1,"byteOffset":25740,"componentType":5126,"count":67,"type":"VEC3"},{"bufferView":1,"byteOffset":26544,"componentType":5126,"count":70,"type":"VEC3"},{"bufferView":1,"byteOffset":27384,"componentType":5126,"count":67,"type":"VEC3"},{"bufferView":1,"byteOffset":28188,"componentType":5126,"count":64,"type":"VEC3"},{"bufferView":1,"byteOffset":28956,"componentType":5126,"count":4,"type":"VEC3"},{"bufferView":1,"byteOffset":29004,"componentType":5126,"count":4,"type":"VEC3"},{"bufferView":2,"byteOffset":0,"componentType":5123,"count":2388,"type":"SCALAR"},{"bufferView":2,"byteOffset":4776,"componentType":5123,"count":78,"type":"SCALAR"},{"bufferView":2,"byteOffset":4932,"componentType":5123,"count":96,"type":"SCALAR"},{"bufferView":2,"byteOffset":5124,"componentType":5123,"count":2055,"type":"SCALAR"},{"bufferView":2,"byteOffset":9236,"componentType":5123,"count":210,"type":"SCALAR"},{"bufferView":2,"byteOffset":9656,"componentType":5123,"count":2037,"type":"SCALAR"},{"bufferView":2,"byteOffset":13732,"componentType":5123,"count":201,"type":"SCALAR"},{"bufferView":2,"byteOffset":14136,"componentType":5123,"count":1887,"type":"SCALAR"},{"bufferView":2,"byteOffset":17912,"componentType":5123,"count":6,"type":"SCALAR"},{"bufferView":2,"byteOffset":17924,"componentType":5123,"count":60,"type":"SCALAR"},{"bufferView":2,"byteOffset":18044,"componentType":5123,"count":51,"type":"SCALAR"},{"bufferView":2,"byteOffset":18148,"componentType":5123,"count":51,"type":"SCALAR"},{"bufferView":2,"byteOffset":18252,"componentType":5123,"count":30,"type":"SCALAR"},{"bufferView":2,"byteOffset":18312,"componentType":5123,"count":6,"type":"SCALAR"},{"bufferView":2,"byteOffset":18324,"componentType":5123,"count":6,"type":"SCALAR"},{"bufferView":2,"byteOffset":18336,"componentType":5123,"count":138,"type":"SCALAR"},{"bufferView":2,"byteOffset":18612,"componentType":5123,"count":6,"type":"SCALAR"},{"bufferView":2,"byteOffset":18624,"componentType":5123,"count":138,"type":"SCALAR"},{"bufferView":2,"byteOffset":18900,"componentType":5123,"count":6,"type":"SCALAR"},{"bufferView":2,"byteOffset":18912,"componentType":5123,"count":60,"type":"SCALAR"},{"bufferView":2,"byteOffset":19032,"componentType":5123,"count":42,"type":"SCALAR"},{"bufferView":2,"byteOffset":19116,"componentType":5123,"count":51,"type":"SCALAR"},{"bufferView":2,"byteOffset":19220,"componentType":5123,"count":42,"type":"SCALAR"},{"bufferView":2,"byteOffset":19304,"componentType":5123,"count":51,"type":"SCALAR"},{"bufferView":2,"byteOffset":19408,"componentType":5123,"count":30,"type":"SCALAR"},{"bufferView":2,"byteOffset":19468,"componentType":5123,"count":6,"type":"SCALAR"},{"bufferView":2,"byteOffset":19480,"componentType":5123,"count":138,"type":"SCALAR"},{"bufferView":2,"byteOffset":19756,"componentType":5123,"count":138,"type":"SCALAR"},{"bufferView":2,"byteOffset":20032,"componentType":5123,"count":6,"type":"SCALAR"},{"bufferView":2,"byteOffset":20044,"componentType":5123,"count":6,"type":"SCALAR"},{"bufferView":2,"byteOffset":20056,"componentType":5123,"count":6,"type":"SCALAR"},{"bufferView":2,"byteOffset":20068,"componentType":5123,"count":6,"type":"SCALAR"},{"bufferView":2,"byteOffset":20080,"componentType":5123,"count":6,"type":"SCALAR"},{"bufferView":2,"byteOffset":20092,"componentType":5123,"count":6,"type":"SCALAR"},{"bufferView":2,"byteOffset":20104,"componentType":5123,"count":6,"type":"SCALAR"},{"bufferView":2,"byteOffset":20116,"componentType":5123,"count":6,"type":"SCALAR"},{"bufferView":2,"byteOffset":20128,"componentType":5123,"count":6,"type":"SCALAR"},{"bufferView":2,"byteOffset":20140,"componentType":5123,"count":6,"type":"SCALAR"},{"bufferView":2,"byteOffset":20152,"componentType":5123,"count":6,"type":"SCALAR"},{"bufferView":2,"byteOffset":20164,"componentType":5123,"count":6,"type":"SCALAR"},{"bufferView":2,"byteOffset":20176,"componentType":5123,"count":195,"type":"SCALAR"},{"bufferView":2,"byteOffset":20568,"componentType":5123,"count":204,"type":"SCALAR"},{"bufferView":2,"byteOffset":20976,"componentType":5123,"count":195,"type":"SCALAR"},{"bufferView":2,"byteOffset":21368,"componentType":5123,"count":186,"type":"SCALAR"},{"bufferView":2,"byteOffset":21740,"componentType":5123,"count":6,"type":"SCALAR"},{"bufferView":2,"byteOffset":21752,"componentType":5123,"count":6,"type":"SCALAR"}],"asset":{"generator":"Open CASCADE Technology 7.6 [dev.opencascade.org]","version":"2.0"},"bufferViews":[{"buffer":0,"byteLength":29052,"byteOffset":0,"byteStride":12,"target":34962},{"buffer":0,"byteLength":29052,"byteOffset":29052,"byteStride":12,"target":34962},{"buffer":0,"byteLength":21764,"byteOffset":58104,"target":34963}],"buffers":[{"byteLength":79868,"uri":"cola-bottle-cap-cocacola-cap.bin"}],"materials":[{"name":"mat_0","pbrMetallicRoughness":{"baseColorFactor":[0.6038273572921753,0.6038273572921753,0.6038273572921753,1.0]},"doubleSided":true}],"meshes":[{"name":"cap","primitives":[{"attributes":{"NORMAL":46,"POSITION":0},"indices":92,"material":0,"mode":4},{"attributes":{"NORMAL":47,"POSITION":1},"indices":93,"material":0,"mode":4},{"attributes":{"NORMAL":48,"POSITION":2},"indices":94,"material":0,"mode":4},{"attributes":{"NORMAL":49,"POSITION":3},"indices":95,"material":0,"mode":4},{"attributes":{"NORMAL":50,"POSITION":4},"indices":96,"material":0,"mode":4},{"attributes":{"NORMAL":51,"POSITION":5},"indices":97,"material":0,"mode":4},{"attributes":{"NORMAL":52,"POSITION":6},"indices":98,"material":0,"mode":4},{"attributes":{"NORMAL":53,"POSITION":7},"indices":99,"material":0,"mode":4}]},{"name":"cap_tab","primitives":[{"attributes":{"NORMAL":54,"POSITION":8},"indices":100,"material":0,"mode":4},{"attributes":{"NORMAL":55,"POSITION":9},"indices":101,"material":0,"mode":4},{"attributes":{"NORMAL":56,"POSITION":10},"indices":102,"material":0,"mode":4},{"attributes":{"NORMAL":57,"POSITION":11},"indices":103,"material":0,"mode":4},{"attributes":{"NORMAL":58,"POSITION":12},"indices":104,"material":0,"mode":4},{"attributes":{"NORMAL":59,"POSITION":13},"indices":105,"material":0,"mode":4},{"attributes":{"NORMAL":60,"POSITION":14},"indices":106,"material":0,"mode":4},{"attributes":{"NORMAL":61,"POSITION":15},"indices":107,"material":0,"mode":4},{"attributes":{"NORMAL":62,"POSITION":16},"indices":108,"material":0,"mode":4},{"attributes":{"NORMAL":63,"POSITION":17},"indices":109,"material":0,"mode":4},{"attributes":{"NORMAL":64,"POSITION":18},"indices":110,"material":0,"mode":4},{"attributes":{"NORMAL":65,"POSITION":19},"indices":111,"material":0,"mode":4},{"attributes":{"NORMAL":66,"POSITION":20},"indices":112,"material":0,"mode":4},{"attributes":{"NORMAL":67,"POSITION":21},"indices":113,"material":0,"mode":4},{"attributes":{"NORMAL":68,"POSITION":22},"indices":114,"material":0,"mode":4},{"attributes":{"NORMAL":69,"POSITION":23},"indices":115,"material":0,"mode":4},{"attributes":{"NORMAL":70,"POSITION":24},"indices":116,"material":0,"mode":4},{"attributes":{"NORMAL":71,"POSITION":25},"indices":117,"material":0,"mode":4},{"attributes":{"NORMAL":72,"POSITION":26},"indices":118,"material":0,"mode":4},{"attributes":{"NORMAL":73,"POSITION":27},"indices":119,"material":0,"mode":4}]},{"name":"string","primitives":[{"attributes":{"NORMAL":74,"POSITION":28},"indices":120,"material":0,"mode":4},{"attributes":{"NORMAL":75,"POSITION":29},"indices":121,"material":0,"mode":4},{"attributes":{"NORMAL":76,"POSITION":30},"indices":122,"material":0,"mode":4},{"attributes":{"NORMAL":77,"POSITION":31},"indices":123,"material":0,"mode":4},{"attributes":{"NORMAL":78,"POSITION":32},"indices":124,"material":0,"mode":4},{"attributes":{"NORMAL":79,"POSITION":33},"indices":125,"material":0,"mode":4}]},{"name":"string2","primitives":[{"attributes":{"NORMAL":80,"POSITION":34},"indices":126,"material":0,"mode":4},{"attributes":{"NORMAL":81,"POSITION":35},"indices":127,"material":0,"mode":4},{"attributes":{"NORMAL":82,"POSITION":36},"indices":128,"material":0,"mode":4},{"attributes":{"NORMAL":83,"POSITION":37},"indices":129,"material":0,"mode":4},{"attributes":{"NORMAL":84,"POSITION":38},"indices":130,"material":0,"mode":4},{"attributes":{"NORMAL":85,"POSITION":39},"indices":131,"material":0,"mode":4}]},{"name":"holder","primitives":[{"attributes":{"NORMAL":86,"POSITION":40},"indices":132,"material":0,"mode":4},{"attributes":{"NORMAL":87,"POSITION":41},"indices":133,"material":0,"mode":4},{"attributes":{"NORMAL":88,"POSITION":42},"indices":134,"material":0,"mode":4},{"attributes":{"NORMAL":89,"POSITION":43},"indices":135,"material":0,"mode":4},{"attributes":{"NORMAL":90,"POSITION":44},"indices":136,"material":0,"mode":4},{"attributes":{"NORMAL":91,"POSITION":45},"indices":137,"material":0,"mode":4}]}],"nodes":[{"children":[1,2,3,4,5],"name":"cocacola-cap"},{"mesh":0,"name":"cap"},{"mesh":1,"name":"cap_tab"},{"translation":[-0.043000000000000006,0.0,-0.005],"mesh":2,"name":"string"},{"translation":[-0.043000000000000006,0.0,0.006],"mesh":3,"name":"string2"},{"rotation":[0.0,-0.17364817766693056,0.0,0.9848077530122081],"translation":[-0.054,0.0,0.0],"mesh":4,"name":"holder"}],"scene":0,"scenes":[{"nodes":[0]}]}